<svg width="40" height="40" viewBox="0 0 40 40" fill="none" xmlns="http://www.w3.org/2000/svg">
<circle cx="20.042" cy="19.9581" r="18.9581" fill="#F2F1F6" stroke="black" stroke-width="2"/>
<path d="M8.55092 19.9841L15.7033 17.3549" stroke="black" stroke-width="2"/>
<path d="M11.277 23.6304C11.4955 24.0869 11.709 24.4843 11.9034 24.8463C11.991 25.0094 12.0748 25.1653 12.1534 25.3162C12.6312 26.2336 12.9525 27.0093 12.9674 28.3474C12.7641 29.3209 12.5029 29.677 12.3096 29.8407C12.1063 30.0129 11.8332 30.1079 11.2498 30.224C10.5514 30.1067 10.2597 29.9203 10.0929 29.6816C9.88226 29.3803 9.69195 28.7467 9.78652 27.3368C9.98702 26.5783 10.2817 25.9074 10.6937 24.9768L10.6951 24.9737C10.873 24.5718 11.068 24.1314 11.277 23.6304Z" fill="#F2F1F6" stroke="black" stroke-width="2"/>
<path d="M24.3809 17.3548L31.3228 19.9581" stroke="black" stroke-width="2"/>
<path d="M13.968 32.9742L19.575 26.0323L26.1164 32.9742" stroke="black" stroke-width="2"/>
</svg>
