<svg width="40" height="40" viewBox="0 0 40 40" fill="none" xmlns="http://www.w3.org/2000/svg">
<circle cx="19.9581" cy="19.9581" r="18.9581" fill="#F2F1F6" stroke="black" stroke-width="2"/>
<path d="M27.6356 27.7677C27.6356 29.0292 26.9065 30.2735 25.5206 31.2436C24.1379 32.2115 22.1744 32.8419 19.9582 32.8419C17.742 32.8419 15.7785 32.2115 14.3958 31.2436C13.0099 30.2735 12.2808 29.0292 12.2808 27.7677C12.2808 27.4915 12.3151 27.3479 12.3373 27.2853C12.387 27.2772 12.4863 27.27 12.6583 27.288C12.8925 27.3127 13.1886 27.3755 13.5643 27.4759C13.8499 27.5522 14.1732 27.6492 14.5281 27.7558C15.9573 28.1848 17.8993 28.7678 19.9582 28.7678C22.0171 28.7678 23.9591 28.1848 25.3882 27.7558C25.7432 27.6492 26.0665 27.5522 26.3521 27.4759C26.7278 27.3755 27.0239 27.3127 27.2581 27.288C27.4301 27.27 27.5294 27.2772 27.579 27.2853C27.6013 27.3479 27.6356 27.4915 27.6356 27.7677Z" fill="#F2F1F6" stroke="black" stroke-width="2"/>
<path d="M24.2966 18.2226L27.7676 15.6194L31.2386 18.2226" stroke="black" stroke-width="2"/>
<path d="M8.67749 18.2226L12.1485 15.6194L15.6194 18.2226" stroke="black" stroke-width="2"/>
</svg>
