<svg width="41" height="40" viewBox="0 0 41 40" fill="none" xmlns="http://www.w3.org/2000/svg">
<circle cx="20.7711" cy="19.9581" r="18.9581" fill="#FAD02C" stroke="black" stroke-width="2"/>
<line x1="25.1096" y1="18.0903" x2="32.0516" y2="18.0903" stroke="black" stroke-width="2"/>
<line x1="9.49023" y1="18.0903" x2="16.4322" y2="18.0903" stroke="black" stroke-width="2"/>
<path d="M29.3162 29.5032C29.3162 29.8998 29.2701 30.1123 29.2345 30.212C29.2262 30.212 29.217 30.2117 29.2069 30.2113C29.1379 30.2084 29.0414 30.1956 28.9111 30.1655C28.6446 30.1039 28.3113 29.988 27.8904 29.8203C27.6453 29.7227 27.3765 29.6091 27.0866 29.4866C25.4753 28.8054 23.2138 27.8493 20.771 27.8493C18.3282 27.8493 16.0666 28.8054 14.4553 29.4866C14.1655 29.6091 13.8966 29.7228 13.6516 29.8204C13.2306 29.988 12.8973 30.1039 12.6308 30.1655C12.5006 30.1956 12.4041 30.2084 12.3351 30.2114C12.3249 30.2118 12.3158 30.212 12.3075 30.212C12.2719 30.1123 12.2258 29.8999 12.2258 29.5032C12.2258 27.8297 13.0399 26.6732 14.4998 25.8781C16.0187 25.0509 18.2141 24.6429 20.771 24.6429C23.3279 24.6429 25.5233 25.0509 27.0422 25.8781C28.5021 26.6731 29.3162 27.8296 29.3162 29.5032Z" fill="#FAD02C" stroke="black" stroke-width="2"/>
<path d="M29.3162 29.5032C29.3162 29.8998 29.2701 30.1123 29.2345 30.212C29.2262 30.212 29.217 30.2117 29.2069 30.2113C29.1379 30.2084 29.0414 30.1956 28.9111 30.1655C28.6446 30.1039 28.3113 29.988 27.8904 29.8203C27.6453 29.7227 27.3765 29.6091 27.0866 29.4866C25.4753 28.8054 23.2138 27.8493 20.771 27.8493C18.3282 27.8493 16.0666 28.8054 14.4553 29.4866C14.1655 29.6091 13.8966 29.7228 13.6516 29.8204C13.2306 29.988 12.8973 30.1039 12.6308 30.1655C12.5006 30.1956 12.4041 30.2084 12.3351 30.2114C12.3249 30.2118 12.3158 30.212 12.3075 30.212C12.2719 30.1123 12.2258 29.8999 12.2258 29.5032C12.2258 27.8297 13.0399 26.6732 14.4998 25.8781C16.0187 25.0509 18.2141 24.6429 20.771 24.6429C23.3279 24.6429 25.5233 25.0509 27.0422 25.8781C28.5021 26.6731 29.3162 27.8296 29.3162 29.5032Z" fill="#FAD02C" stroke="black" stroke-width="2"/>
</svg>
